<svg width="152" height="152" viewBox="0 0 152 152" xmlns="http://www.w3.org/2000/svg">
    <defs>
      <linearGradient id="bg-gradient-152" x1="0%" y1="0%" x2="100%" y2="100%">
        <stop offset="0%" style="stop-color:#3b82f6"/>
        <stop offset="100%" style="stop-color:#8b5cf6"/>
      </linearGradient>
    </defs>
    
    <!-- Background -->
    <rect width="152" height="152" fill="url(#bg-gradient-152)" rx="15.200000000000001"/>
    
    <!-- Icon content -->
    
      <!-- Nota musical principal -->
      <rect x="96" y="16" width="4" height="80" fill="#ffffff" rx="2"/>
      <ellipse cx="92" cy="96" rx="10" ry="6" fill="#ffffff"/>
      
      <!-- Segunda nota -->
      <rect x="52" y="36" width="4" height="60" fill="#ffffff" rx="2"/>
      <ellipse cx="48" cy="96" rx="10" ry="6" fill="#ffffff"/>
      
      <!-- Conexão entre notas -->
      <path d="M 56 36 L 100 16 L 100 26 L 56 46 Z" fill="#ffffff"/>
      
      <!-- Ondas sonoras -->
      <g opacity="0.8">
        <path d="M 36 66 Q 46 61 56 66 Q 66 71 76 66" 
              stroke="#ffffff" stroke-width="2" fill="none"/>
        <path d="M 36 76 Q 46 71 56 76 Q 66 81 76 76" 
              stroke="#ffffff" stroke-width="2" fill="none"/>
        <path d="M 36 86 Q 46 81 56 86 Q 66 91 76 86" 
              stroke="#ffffff" stroke-width="2" fill="none"/>
      </g>
    
    
    <!-- Subtle border -->
    <rect width="152" height="152" fill="none" stroke="rgba(255,255,255,0.2)" stroke-width="1" rx="15.200000000000001"/>
  </svg>