<svg width="96" height="96" viewBox="0 0 96 96" xmlns="http://www.w3.org/2000/svg">
    <defs>
      <linearGradient id="bg-gradient-96" x1="0%" y1="0%" x2="100%" y2="100%">
        <stop offset="0%" style="stop-color:#3b82f6"/>
        <stop offset="100%" style="stop-color:#8b5cf6"/>
      </linearGradient>
    </defs>
    
    <!-- Background -->
    <rect width="96" height="96" fill="url(#bg-gradient-96)" rx="9.600000000000001"/>
    
    <!-- Icon content -->
    
      <!-- Nota musical principal -->
      <rect x="68" y="-12" width="4" height="80" fill="#ffffff" rx="2"/>
      <ellipse cx="64" cy="68" rx="10" ry="6" fill="#ffffff"/>
      
      <!-- Segunda nota -->
      <rect x="24" y="8" width="4" height="60" fill="#ffffff" rx="2"/>
      <ellipse cx="20" cy="68" rx="10" ry="6" fill="#ffffff"/>
      
      <!-- Conexão entre notas -->
      <path d="M 28 8 L 72 -12 L 72 -2 L 28 18 Z" fill="#ffffff"/>
      
      <!-- Ondas sonoras -->
      <g opacity="0.8">
        <path d="M 8 38 Q 18 33 28 38 Q 38 43 48 38" 
              stroke="#ffffff" stroke-width="2" fill="none"/>
        <path d="M 8 48 Q 18 43 28 48 Q 38 53 48 48" 
              stroke="#ffffff" stroke-width="2" fill="none"/>
        <path d="M 8 58 Q 18 53 28 58 Q 38 63 48 58" 
              stroke="#ffffff" stroke-width="2" fill="none"/>
      </g>
    
    
    <!-- Subtle border -->
    <rect width="96" height="96" fill="none" stroke="rgba(255,255,255,0.2)" stroke-width="1" rx="9.600000000000001"/>
  </svg>