<svg width="72" height="72" viewBox="0 0 72 72" xmlns="http://www.w3.org/2000/svg">
    <defs>
      <linearGradient id="bg-gradient-72" x1="0%" y1="0%" x2="100%" y2="100%">
        <stop offset="0%" style="stop-color:#3b82f6"/>
        <stop offset="100%" style="stop-color:#8b5cf6"/>
      </linearGradient>
    </defs>
    
    <!-- Background -->
    <rect width="72" height="72" fill="url(#bg-gradient-72)" rx="7.2"/>
    
    <!-- Icon content -->
    
      <!-- Nota musical principal -->
      <rect x="56" y="-24" width="4" height="80" fill="#ffffff" rx="2"/>
      <ellipse cx="52" cy="56" rx="10" ry="6" fill="#ffffff"/>
      
      <!-- Segunda nota -->
      <rect x="12" y="-4" width="4" height="60" fill="#ffffff" rx="2"/>
      <ellipse cx="8" cy="56" rx="10" ry="6" fill="#ffffff"/>
      
      <!-- Conexão entre notas -->
      <path d="M 16 -4 L 60 -24 L 60 -14 L 16 6 Z" fill="#ffffff"/>
      
      <!-- Ondas sonoras -->
      <g opacity="0.8">
        <path d="M -4 26 Q 6 21 16 26 Q 26 31 36 26" 
              stroke="#ffffff" stroke-width="2" fill="none"/>
        <path d="M -4 36 Q 6 31 16 36 Q 26 41 36 36" 
              stroke="#ffffff" stroke-width="2" fill="none"/>
        <path d="M -4 46 Q 6 41 16 46 Q 26 51 36 46" 
              stroke="#ffffff" stroke-width="2" fill="none"/>
      </g>
    
    
    <!-- Subtle border -->
    <rect width="72" height="72" fill="none" stroke="rgba(255,255,255,0.2)" stroke-width="1" rx="7.2"/>
  </svg>