<svg width="128" height="128" viewBox="0 0 128 128" xmlns="http://www.w3.org/2000/svg">
    <defs>
      <linearGradient id="bg-gradient-128" x1="0%" y1="0%" x2="100%" y2="100%">
        <stop offset="0%" style="stop-color:#3b82f6"/>
        <stop offset="100%" style="stop-color:#8b5cf6"/>
      </linearGradient>
    </defs>
    
    <!-- Background -->
    <rect width="128" height="128" fill="url(#bg-gradient-128)" rx="12.8"/>
    
    <!-- Icon content -->
    
      <!-- Nota musical principal -->
      <rect x="84" y="4" width="4" height="80" fill="#ffffff" rx="2"/>
      <ellipse cx="80" cy="84" rx="10" ry="6" fill="#ffffff"/>
      
      <!-- Segunda nota -->
      <rect x="40" y="24" width="4" height="60" fill="#ffffff" rx="2"/>
      <ellipse cx="36" cy="84" rx="10" ry="6" fill="#ffffff"/>
      
      <!-- Conexão entre notas -->
      <path d="M 44 24 L 88 4 L 88 14 L 44 34 Z" fill="#ffffff"/>
      
      <!-- Ondas sonoras -->
      <g opacity="0.8">
        <path d="M 24 54 Q 34 49 44 54 Q 54 59 64 54" 
              stroke="#ffffff" stroke-width="2" fill="none"/>
        <path d="M 24 64 Q 34 59 44 64 Q 54 69 64 64" 
              stroke="#ffffff" stroke-width="2" fill="none"/>
        <path d="M 24 74 Q 34 69 44 74 Q 54 79 64 74" 
              stroke="#ffffff" stroke-width="2" fill="none"/>
      </g>
    
    
    <!-- Subtle border -->
    <rect width="128" height="128" fill="none" stroke="rgba(255,255,255,0.2)" stroke-width="1" rx="12.8"/>
  </svg>