<svg width="180" height="180" viewBox="0 0 180 180" xmlns="http://www.w3.org/2000/svg">
    <defs>
      <linearGradient id="bg-gradient-180" x1="0%" y1="0%" x2="100%" y2="100%">
        <stop offset="0%" style="stop-color:#3b82f6"/>
        <stop offset="100%" style="stop-color:#8b5cf6"/>
      </linearGradient>
    </defs>
    
    <!-- Background -->
    <rect width="180" height="180" fill="url(#bg-gradient-180)" rx="18"/>
    
    <!-- Icon content -->
    
      <!-- Nota musical principal -->
      <rect x="110" y="30" width="4" height="80" fill="#ffffff" rx="2"/>
      <ellipse cx="106" cy="110" rx="10" ry="6" fill="#ffffff"/>
      
      <!-- Segunda nota -->
      <rect x="66" y="50" width="4" height="60" fill="#ffffff" rx="2"/>
      <ellipse cx="62" cy="110" rx="10" ry="6" fill="#ffffff"/>
      
      <!-- Conexão entre notas -->
      <path d="M 70 50 L 114 30 L 114 40 L 70 60 Z" fill="#ffffff"/>
      
      <!-- Ondas sonoras -->
      <g opacity="0.8">
        <path d="M 50 80 Q 60 75 70 80 Q 80 85 90 80" 
              stroke="#ffffff" stroke-width="2" fill="none"/>
        <path d="M 50 90 Q 60 85 70 90 Q 80 95 90 90" 
              stroke="#ffffff" stroke-width="2" fill="none"/>
        <path d="M 50 100 Q 60 95 70 100 Q 80 105 90 100" 
              stroke="#ffffff" stroke-width="2" fill="none"/>
      </g>
    
    
    <!-- Subtle border -->
    <rect width="180" height="180" fill="none" stroke="rgba(255,255,255,0.2)" stroke-width="1" rx="18"/>
  </svg>