<svg width="512" height="512" viewBox="0 0 512 512" fill="none" xmlns="http://www.w3.org/2000/svg">
  <!-- Background gradient -->
  <defs>
    <linearGradient id="bg-gradient" x1="0%" y1="0%" x2="100%" y2="100%">
      <stop offset="0%" style="stop-color:#3b82f6;stop-opacity:1" />
      <stop offset="100%" style="stop-color:#8b5cf6;stop-opacity:1" />
    </linearGradient>
    <linearGradient id="icon-gradient" x1="0%" y1="0%" x2="100%" y2="100%">
      <stop offset="0%" style="stop-color:#ffffff;stop-opacity:1" />
      <stop offset="100%" style="stop-color:#f1f5f9;stop-opacity:1" />
    </linearGradient>
  </defs>
  
  <!-- Background circle -->
  <circle cx="256" cy="256" r="240" fill="url(#bg-gradient)" stroke="#1e293b" stroke-width="8"/>
  
  <!-- Music note icon -->
  <g transform="translate(256,256)">
    <!-- Main note stem -->
    <rect x="40" y="-120" width="8" height="160" fill="url(#icon-gradient)" rx="4"/>
    
    <!-- Note head -->
    <ellipse cx="32" cy="40" rx="20" ry="12" fill="url(#icon-gradient)"/>
    
    <!-- Second note -->
    <rect x="-48" y="-80" width="8" height="120" fill="url(#icon-gradient)" rx="4"/>
    <ellipse cx="-56" cy="40" rx="20" ry="12" fill="url(#icon-gradient)"/>
    
    <!-- Connecting beam -->
    <path d="M -40 -80 L 48 -120 L 48 -100 L -40 -60 Z" fill="url(#icon-gradient)"/>
    
    <!-- Studio wave lines -->
    <g opacity="0.7">
      <path d="M -80 -20 Q -60 -30 -40 -20 Q -20 -10 0 -20" stroke="url(#icon-gradient)" stroke-width="3" fill="none"/>
      <path d="M -80 0 Q -60 -10 -40 0 Q -20 10 0 0" stroke="url(#icon-gradient)" stroke-width="3" fill="none"/>
      <path d="M -80 20 Q -60 10 -40 20 Q -20 30 0 20" stroke="url(#icon-gradient)" stroke-width="3" fill="none"/>
    </g>
  </g>
  
  <!-- Subtle border -->
  <circle cx="256" cy="256" r="240" fill="none" stroke="rgba(255,255,255,0.2)" stroke-width="2"/>
</svg>